<svg width="190" height="190" viewBox="0 0 190 190" fill="none" xmlns="http://www.w3.org/2000/svg">
<path d="M65.7711 94.2998C65.5007 98.9716 69.1169 102.971 73.8146 103.24C73.9835 103.24 74.1525 103.24 74.3215 103.24C79.053 103.24 82.8719 99.4422 82.8381 94.7367C82.8381 90.0313 79.0192 86.2333 74.2877 86.2669C69.759 86.2669 66.0076 89.796 65.7711 94.2998Z" fill="#FBFCFF" fill-opacity="0.2"/>
<path d="M33.935 92.1151C32.4142 92.0143 31.0962 93.1906 31.0286 94.7031C30.961 96.2156 32.11 97.5264 33.6309 97.5936C35.1517 97.6944 36.436 96.5181 36.5373 95.0056C36.6387 93.4931 35.4559 92.2159 33.935 92.1151Z" fill="#FBFCFF" fill-opacity="0.2"/>
<path d="M65.2303 45.027C66.5822 44.3548 67.1229 42.6743 66.447 41.3299C65.7711 39.9855 64.0812 39.4477 62.7294 40.1199C61.3776 40.7921 60.8368 42.439 61.5127 43.7834C62.1887 45.1615 63.8447 45.7328 65.2303 45.027C65.2303 45.027 65.1965 45.027 65.2303 45.027Z" fill="#FBFCFF" fill-opacity="0.2"/>
<path d="M73.8822 60.0508C75.9775 59.0089 76.8224 56.4545 75.7747 54.3707C74.7271 52.2869 72.1585 51.4466 70.0632 52.4885C67.9678 53.5304 67.1229 56.0848 68.1706 58.1687C69.2183 60.2525 71.7868 61.0928 73.8822 60.0508Z" fill="#FBFCFF" fill-opacity="0.2"/>
<path d="M44.7498 70.3692C46.372 71.4112 48.535 70.9742 49.6165 69.3609C50.6642 67.7476 50.2248 65.5966 48.6026 64.521C46.9804 63.4791 44.8174 63.9161 43.7359 65.5293C42.6545 67.1426 43.1276 69.3273 44.7498 70.3692Z" fill="#FBFCFF" fill-opacity="0.2"/>
<path d="M49.9206 90.6027C47.5549 90.4682 45.5609 92.2496 45.4258 94.6023C45.2906 96.955 47.0818 98.938 49.4475 99.0725C51.8132 99.2069 53.8072 97.4256 53.9424 95.0728C54.0776 92.7537 52.2864 90.7371 49.9206 90.6027Z" fill="#FBFCFF" fill-opacity="0.2"/>
<path d="M45.223 119.071C43.4994 119.944 42.7897 122.028 43.6684 123.776C44.5471 125.49 46.6424 126.196 48.3998 125.322C50.1234 124.448 50.8332 122.364 49.9545 120.617C49.0758 118.903 46.9466 118.197 45.223 119.071Z" fill="#FBFCFF" fill-opacity="0.2"/>
<path d="M61.7831 81.8304C64.1151 83.3428 67.2243 82.7042 68.7113 80.3851C70.2322 78.066 69.59 74.9738 67.2581 73.495C64.9262 71.9825 61.8169 72.6211 60.3299 74.9402C58.8091 77.2257 59.4512 80.3179 61.7831 81.8304Z" fill="#FBFCFF" fill-opacity="0.2"/>
<path d="M114.336 59.7148C116.296 60.9919 118.966 60.4542 120.251 58.5048C121.535 56.5554 120.994 53.9002 119.034 52.623C117.074 51.3458 114.404 51.8835 113.12 53.8329C111.801 55.816 112.342 58.4376 114.336 59.7148Z" fill="#FBFCFF" fill-opacity="0.2"/>
<path d="M123.056 44.7581C124.34 45.5984 126.03 45.2287 126.875 43.9515C127.719 42.6743 127.348 40.9938 126.063 40.1535C124.779 39.3133 123.089 39.683 122.245 40.9266C121.433 42.2037 121.805 43.9179 123.056 44.7581Z" fill="#FBFCFF" fill-opacity="0.2"/>
<path d="M114.978 86.1997C110.281 85.9308 106.225 89.5271 105.989 94.1989C105.718 98.8708 109.334 102.904 114.032 103.139C114.201 103.139 114.37 103.139 114.505 103.139C119.203 103.139 123.022 99.3413 123.022 94.6359C123.056 90.1657 119.507 86.435 114.978 86.1997Z" fill="#FBFCFF" fill-opacity="0.2"/>
<path d="M76.6872 81.2254C78.1405 84.0823 81.0807 85.8972 84.3252 85.8972C89.0229 85.8972 92.8418 82.0992 92.8418 77.3938C92.8418 76.083 92.5377 74.7722 91.9293 73.5622C89.8002 69.3609 84.6631 67.6804 80.4724 69.7978C76.2479 71.9489 74.5581 77.0577 76.6872 81.2254Z" fill="#FBFCFF" fill-opacity="0.2"/>
<path d="M143.57 70.3692C145.294 69.4954 145.969 67.3779 145.091 65.6638C144.212 63.9496 142.083 63.2774 140.359 64.1513C138.636 65.0252 137.96 67.109 138.805 68.8231C139.717 70.5373 141.813 71.2431 143.57 70.3692Z" fill="#FBFCFF" fill-opacity="0.2"/>
<path d="M121.94 73.0581C119.473 74.3016 118.459 77.293 119.71 79.7465C120.96 82.2001 123.968 83.2084 126.435 81.9648C128.902 80.7212 129.916 77.7299 128.666 75.2763C127.415 72.8228 124.407 71.8481 121.94 73.0581Z" fill="#FBFCFF" fill-opacity="0.2"/>
<path d="M94.0585 43.4809C95.9849 43.5818 97.6409 42.1029 97.7761 40.1871C97.9113 38.2713 96.3904 36.6244 94.4641 36.49C92.5377 36.3891 90.8817 37.8344 90.7465 39.7502C90.6451 41.6996 92.1321 43.3465 94.0585 43.4809Z" fill="#FBFCFF" fill-opacity="0.2"/>
<path d="M94.0247 65.4285C96.796 65.5965 99.1617 63.4791 99.2969 60.723C99.4659 57.967 97.3367 55.6143 94.5654 55.4798C91.7941 55.3118 89.4284 57.4292 89.2932 60.1853C89.158 62.9413 91.2534 65.2941 94.0247 65.4285Z" fill="#FBFCFF" fill-opacity="0.2"/>
<path d="M66.8525 116.382C69.3197 115.138 70.3335 112.147 69.0831 109.693C67.8326 107.24 64.8248 106.231 62.3576 107.475C59.8905 108.719 58.8766 111.71 60.1271 114.163C61.3776 116.617 64.3854 117.625 66.8525 116.382Z" fill="#FBFCFF" fill-opacity="0.2"/>
<path d="M97.2691 72.7219C94.7006 76.6544 95.7821 81.8976 99.7362 84.452C103.69 87.0063 108.963 85.9308 111.531 81.9984C114.1 78.066 113.018 72.8228 109.064 70.2684C107.678 69.3609 106.056 68.8904 104.4 68.8904C101.527 68.8904 98.8575 70.3356 97.2691 72.7219Z" fill="#FBFCFF" fill-opacity="0.2"/>
<path d="M112.106 108.214C109.976 104.013 104.839 102.333 100.649 104.45C96.4242 106.568 94.7344 111.676 96.8635 115.844C98.9927 120.045 104.13 121.726 108.32 119.608C112.511 117.525 114.235 112.483 112.139 108.282C112.139 108.248 112.139 108.248 112.106 108.214Z" fill="#FBFCFF" fill-opacity="0.2"/>
<path d="M127.01 107.609C124.678 106.097 121.569 106.736 120.082 109.055C118.561 111.374 119.203 114.466 121.535 115.945C123.867 117.457 126.976 116.819 128.463 114.5C129.984 112.214 129.342 109.122 127.01 107.609Z" fill="#FBFCFF" fill-opacity="0.2"/>
<path d="M143.367 94.8712C143.502 92.5184 141.711 90.5354 139.345 90.401C136.98 90.2665 134.986 92.0479 134.85 94.4006C134.715 96.7533 136.506 98.7363 138.872 98.8708C141.204 99.0052 143.232 97.1903 143.367 94.8712Z" fill="#FBFCFF" fill-opacity="0.2"/>
<path d="M155.162 91.8462C153.641 91.7454 152.323 92.9218 152.256 94.4342C152.188 95.9467 153.337 97.2575 154.858 97.3247C156.379 97.4255 157.663 96.2492 157.764 94.7367C157.832 93.2243 156.683 91.9471 155.162 91.8462Z" fill="#FBFCFF" fill-opacity="0.2"/>
<path d="M144.043 119.071C142.421 118.029 140.258 118.466 139.176 120.079C138.129 121.692 138.568 123.843 140.19 124.919C141.812 125.961 143.975 125.524 145.057 123.911C146.138 122.297 145.665 120.113 144.043 119.071Z" fill="#FBFCFF" fill-opacity="0.2"/>
<path d="M65.7035 144.682C64.4192 143.841 62.7294 144.211 61.8845 145.455C61.0396 146.732 61.4114 148.412 62.6618 149.253C63.9461 150.093 65.6359 149.723 66.4808 148.48C67.3595 147.236 66.9877 145.522 65.7035 144.682Z" fill="#FBFCFF" fill-opacity="0.2"/>
<path d="M123.563 144.413C122.211 145.085 121.67 146.766 122.346 148.11C123.022 149.454 124.712 149.992 126.063 149.32C127.415 148.648 127.956 147.001 127.28 145.656C126.604 144.278 124.948 143.707 123.563 144.413C123.596 144.413 123.563 144.413 123.563 144.413Z" fill="#FBFCFF" fill-opacity="0.2"/>
<path d="M91.5238 116.718C94.0923 112.785 93.0108 107.542 89.0566 104.954C85.1025 102.4 79.8303 103.475 77.228 107.408C74.6257 111.34 75.7409 116.583 79.6951 119.171C81.0807 120.079 82.703 120.549 84.359 120.549C87.2654 120.583 89.9353 119.138 91.5238 116.718Z" fill="#FBFCFF" fill-opacity="0.2"/>
<path d="M74.4567 129.725C72.4965 128.448 69.8266 128.986 68.5423 130.935C67.2581 132.884 67.7988 135.54 69.759 136.817C71.7192 138.094 74.3891 137.556 75.6733 135.607C76.9914 133.658 76.4506 131.002 74.4567 129.725Z" fill="#FBFCFF" fill-opacity="0.2"/>
<path d="M94.3626 145.959C92.4363 145.858 90.7802 147.337 90.6451 149.253C90.5099 151.169 92.0307 152.815 93.9571 152.95C95.8835 153.051 97.5395 151.605 97.6747 149.69C97.7761 147.74 96.289 146.093 94.3626 145.959Z" fill="#FBFCFF" fill-opacity="0.2"/>
<path d="M94.3964 124.011C91.6251 123.843 89.2594 125.961 89.1242 128.717C88.9552 131.473 91.0844 133.826 93.8557 133.96C96.627 134.094 98.9927 132.011 99.1279 129.255C99.2969 126.532 97.1677 124.146 94.3964 124.011Z" fill="#FBFCFF" fill-opacity="0.2"/>
<path d="M114.911 129.389C112.815 130.465 111.97 133.019 113.052 135.103C114.133 137.187 116.702 138.027 118.797 136.951C120.893 135.909 121.738 133.355 120.69 131.271C119.608 129.187 117.04 128.313 114.911 129.389Z" fill="#FBFCFF" fill-opacity="0.2"/>
<circle cx="95.1715" cy="95.1715" r="82.8432" stroke="#F8F8F8" stroke-opacity="0.2"/>
<circle cx="94.7166" cy="94.7166" r="94.2166" stroke="#F8F8F8" stroke-opacity="0.2"/>
</svg>
