<svg width="1441" height="1440" viewBox="0 0 1441 1440" fill="none" xmlns="http://www.w3.org/2000/svg">
<line x1="1" y1="539.7" x2="1441" y2="539.7" stroke="white" stroke-opacity="0.09" stroke-width="0.6"/>
<line x1="1" y1="652.2" x2="1441" y2="652.2" stroke="white" stroke-opacity="0.09" stroke-width="0.6"/>
<line x1="1" y1="764.7" x2="1441" y2="764.7" stroke="white" stroke-opacity="0.09" stroke-width="0.6"/>
<line x1="1" y1="877.2" x2="1441" y2="877.2" stroke="white" stroke-opacity="0.09" stroke-width="0.6"/>
<line x1="1" y1="989.7" x2="1441" y2="989.7" stroke="white" stroke-opacity="0.09" stroke-width="0.6"/>
<line x1="1" y1="1102.2" x2="1441" y2="1102.2" stroke="white" stroke-opacity="0.09" stroke-width="0.6"/>
<line x1="1" y1="1214.7" x2="1441" y2="1214.7" stroke="white" stroke-opacity="0.09" stroke-width="0.6"/>
<line x1="1" y1="1327.2" x2="1441" y2="1327.2" stroke="white" stroke-opacity="0.09" stroke-width="0.6"/>
<line x1="1" y1="1439.7" x2="1441" y2="1439.7" stroke="white" stroke-opacity="0.09" stroke-width="0.6"/>
<line x1="0.7" y1="1440" x2="0.700063" y2="-1.31133e-08" stroke="white" stroke-opacity="0.09" stroke-width="0.6"/>
<line x1="111.469" y1="1440" x2="111.469" y2="-1.31133e-08" stroke="white" stroke-opacity="0.09" stroke-width="0.6"/>
<line x1="222.238" y1="1440" x2="222.239" y2="-1.31133e-08" stroke="white" stroke-opacity="0.09" stroke-width="0.6"/>
<line x1="333.008" y1="1440" x2="333.008" y2="-1.31133e-08" stroke="white" stroke-opacity="0.09" stroke-width="0.6"/>
<line x1="443.777" y1="1440" x2="443.777" y2="-1.31133e-08" stroke="white" stroke-opacity="0.09" stroke-width="0.6"/>
<line x1="554.546" y1="1440" x2="554.546" y2="-1.31133e-08" stroke="white" stroke-opacity="0.09" stroke-width="0.6"/>
<line x1="665.315" y1="1440" x2="665.315" y2="-1.31133e-08" stroke="white" stroke-opacity="0.09" stroke-width="0.6"/>
<line x1="776.085" y1="1440" x2="776.085" y2="-1.31133e-08" stroke="white" stroke-opacity="0.09" stroke-width="0.6"/>
<line x1="886.854" y1="1440" x2="886.854" y2="-1.31133e-08" stroke="white" stroke-opacity="0.09" stroke-width="0.6"/>
<line x1="997.623" y1="1440" x2="997.623" y2="-1.31133e-08" stroke="white" stroke-opacity="0.09" stroke-width="0.6"/>
<line x1="1108.39" y1="1440" x2="1108.39" y2="-1.31133e-08" stroke="white" stroke-opacity="0.09" stroke-width="0.6"/>
<line x1="1219.16" y1="1440" x2="1219.16" y2="-1.31133e-08" stroke="white" stroke-opacity="0.09" stroke-width="0.6"/>
<line x1="1329.93" y1="1440" x2="1329.93" y2="-1.31133e-08" stroke="white" stroke-opacity="0.09" stroke-width="0.6"/>
<line x1="1440.7" y1="1440" x2="1440.7" y2="-1.31133e-08" stroke="white" stroke-opacity="0.09" stroke-width="0.6"/>
<path d="M111.5 640.5L111.5 664.5" stroke="url(#paint0_linear_176_19)"/>
<path d="M123.5 652.5L99.5 652.5" stroke="url(#paint1_linear_176_19)"/>
<rect opacity="0.47" x="333.5" y="653.5" width="109" height="110" fill="white" fill-opacity="0.07" stroke="#37393A"/>
<rect opacity="0.47" x="887.5" y="541.5" width="110" height="110" fill="white" fill-opacity="0.07" stroke="#37393A"/>
<rect opacity="0.47" x="1219.5" y="765.5" width="110" height="111" fill="white" fill-opacity="0.07" stroke="#37393A"/>
<path d="M1219 753L1219 777" stroke="url(#paint2_linear_176_19)"/>
<path d="M1231 765L1207 765" stroke="url(#paint3_linear_176_19)"/>
<mask id="mask0_176_19" style="mask-type:alpha" maskUnits="userSpaceOnUse" x="-120" y="19" width="1604" height="1604">
<circle cx="682" cy="821" r="802" fill="url(#paint4_radial_176_19)"/>
</mask>
<g mask="url(#mask0_176_19)">
<path d="M444 865L444 889" stroke="url(#paint5_linear_176_19)"/>
<path d="M456 877L432 877" stroke="url(#paint6_linear_176_19)"/>
</g>
<path d="M111.5 640.5L111.5 664.5" stroke="url(#paint7_linear_176_19)"/>
<path d="M123.5 652.5L99.5 652.5" stroke="url(#paint8_linear_176_19)"/>
<g opacity="0.75">
<path d="M1329 1305L1329 1329" stroke="url(#paint9_linear_176_19)"/>
<path d="M1341 1317L1317 1317" stroke="url(#paint10_linear_176_19)"/>
</g>
<defs>
<linearGradient id="paint0_linear_176_19" x1="111.5" y1="664.5" x2="111.5" y2="640.5" gradientUnits="userSpaceOnUse">
<stop stop-color="#C34124" stop-opacity="0"/>
<stop offset="0.50284" stop-color="#F99A85"/>
<stop offset="1" stop-color="#C34124" stop-opacity="0"/>
</linearGradient>
<linearGradient id="paint1_linear_176_19" x1="99.5" y1="652.5" x2="123.5" y2="652.5" gradientUnits="userSpaceOnUse">
<stop stop-color="#C34124" stop-opacity="0"/>
<stop offset="0.50284" stop-color="#F99A85"/>
<stop offset="1" stop-color="#C34124" stop-opacity="0"/>
</linearGradient>
<linearGradient id="paint2_linear_176_19" x1="1219" y1="777" x2="1219" y2="753" gradientUnits="userSpaceOnUse">
<stop stop-color="white" stop-opacity="0"/>
<stop offset="0.50284" stop-color="white"/>
<stop offset="1" stop-color="white" stop-opacity="0"/>
</linearGradient>
<linearGradient id="paint3_linear_176_19" x1="1207" y1="765" x2="1231" y2="765" gradientUnits="userSpaceOnUse">
<stop stop-color="white" stop-opacity="0"/>
<stop offset="0.50284" stop-color="white"/>
<stop offset="1" stop-color="white" stop-opacity="0"/>
</linearGradient>
<radialGradient id="paint4_radial_176_19" cx="0" cy="0" r="1" gradientUnits="userSpaceOnUse" gradientTransform="translate(682 665.5) rotate(90) scale(957.5)">
<stop stop-color="#D9D9D9"/>
<stop offset="1" stop-color="#D9D9D9" stop-opacity="0"/>
</radialGradient>
<linearGradient id="paint5_linear_176_19" x1="444" y1="889" x2="444" y2="865" gradientUnits="userSpaceOnUse">
<stop stop-color="#DDFB24" stop-opacity="0"/>
<stop offset="0.50284" stop-color="#DDFB24"/>
<stop offset="1" stop-color="#DDFB24" stop-opacity="0"/>
</linearGradient>
<linearGradient id="paint6_linear_176_19" x1="432" y1="877" x2="456" y2="877" gradientUnits="userSpaceOnUse">
<stop stop-color="#DDFB24" stop-opacity="0"/>
<stop offset="0.50284" stop-color="#DDFB24"/>
<stop offset="1" stop-color="#DDFB24" stop-opacity="0"/>
</linearGradient>
<linearGradient id="paint7_linear_176_19" x1="111.5" y1="664.5" x2="111.5" y2="640.5" gradientUnits="userSpaceOnUse">
<stop stop-color="#DDFB24" stop-opacity="0"/>
<stop offset="0.50284" stop-color="#DDFB24"/>
<stop offset="1" stop-color="#DDFB24" stop-opacity="0"/>
</linearGradient>
<linearGradient id="paint8_linear_176_19" x1="99.5" y1="652.5" x2="123.5" y2="652.5" gradientUnits="userSpaceOnUse">
<stop stop-color="#DDFB24" stop-opacity="0"/>
<stop offset="0.50284" stop-color="#DDFB24"/>
<stop offset="1" stop-color="#DDFB24" stop-opacity="0"/>
</linearGradient>
<linearGradient id="paint9_linear_176_19" x1="1329" y1="1329" x2="1329" y2="1305" gradientUnits="userSpaceOnUse">
<stop stop-color="white" stop-opacity="0"/>
<stop offset="0.50284" stop-color="white"/>
<stop offset="1" stop-color="white" stop-opacity="0"/>
</linearGradient>
<linearGradient id="paint10_linear_176_19" x1="1317" y1="1317" x2="1341" y2="1317" gradientUnits="userSpaceOnUse">
<stop stop-color="white" stop-opacity="0"/>
<stop offset="0.50284" stop-color="white"/>
<stop offset="1" stop-color="white" stop-opacity="0"/>
</linearGradient>
</defs>
</svg>
