<svg width="37" height="55" viewBox="0 0 37 55" fill="none" xmlns="http://www.w3.org/2000/svg">
<path d="M18.3333 55C8.20585 55 0 46.4849 0 36.0419V18.9046C0 8.46154 8.20585 0 18.3333 0C28.4608 0 36.6667 8.46154 36.6667 18.9046V36.0419C36.6667 46.4849 28.4608 55 18.3333 55ZM18.3333 4.55209C10.6468 4.55209 4.41454 10.9786 4.41454 18.9046V36.0419C4.41454 43.9679 10.6468 50.3944 18.3333 50.3944C26.0198 50.3944 32.2521 43.9679 32.2521 36.0419V18.9046C32.2521 10.9786 26.0198 4.55209 18.3333 4.55209Z" fill="#E5E5E5"/>
<path d="M18.3333 22.9167C16.699 22.9167 15.2778 21.7258 15.2778 20.2215V13.3896C15.2778 11.948 16.6279 10.6944 18.3333 10.6944C20.0388 10.6944 21.3889 11.8853 21.3889 13.3896V20.2215C21.3889 21.7258 20.0388 22.9167 18.3333 22.9167Z" fill="#E5E5E5"/>
</svg>
