<svg width="52" height="40" viewBox="0 0 52 40" fill="none" xmlns="http://www.w3.org/2000/svg">
<path d="M25.7939 40C40.0396 40 51.5879 31.0457 51.5879 20C51.5879 8.95431 40.0396 0 25.7939 0C11.5483 0 -6.10352e-05 8.95431 -6.10352e-05 20C-6.10352e-05 31.0457 11.5483 40 25.7939 40Z" fill="#232020"/>
<path d="M24.301 28.0463C19.2325 27.4707 15.3428 24.0828 15.3428 19.9891C15.3428 15.8954 19.2325 12.5075 24.301 11.9322V7.69238C16.2316 8.29084 9.92078 13.5677 9.92078 19.9891C9.92078 26.4104 16.2316 31.687 24.301 32.2858V28.0463Z" fill="white"/>
<path fill-rule="evenodd" clip-rule="evenodd" d="M33.9292 12.6837C34.1235 12.3043 33.6743 11.8513 33.2979 12.0472C32.9943 12.1696 32.9215 12.6103 33.1522 12.8429C33.3707 13.0755 33.8078 12.9898 33.9171 12.6837H33.9292ZM29.8012 12.8551C29.8255 12.6103 29.5341 12.39 29.3156 12.4879C28.9999 12.5736 28.9635 13.0755 29.267 13.1979C29.4977 13.3325 29.8255 13.1244 29.8012 12.8551ZM37.4744 13.2101C37.1223 13.1612 37.0616 12.5981 37.4016 12.4879C37.6687 12.3532 37.8994 12.5981 37.9479 12.8551C37.8872 13.0755 37.7173 13.2713 37.4744 13.2101ZM31.076 14.7892C31.1367 14.3485 30.6025 13.9813 30.2262 14.2261C29.8741 14.4098 29.8255 14.9606 30.1412 15.1932C30.469 15.4992 31.0639 15.2422 31.076 14.7892ZM35.9689 14.4832C36.1389 14.0425 36.8188 14.0303 37.0131 14.4587C37.2073 14.7892 36.9645 15.2054 36.6367 15.3156C36.1875 15.4013 35.7625 14.9116 35.9811 14.4832H35.9689ZM33.5164 14.6056C33.1643 14.6301 32.8244 14.9116 32.8244 15.2911C32.8001 15.5971 33.0186 15.8542 33.2736 15.9766H33.3464C33.4921 15.9889 33.6378 16.0011 33.7714 15.9277C34.1113 15.7808 34.2813 15.3156 34.0871 14.9851C33.9899 14.7403 33.735 14.6423 33.4921 14.5934L33.5164 14.6056ZM26.8995 15.842C27.2394 15.6216 27.7008 16.0256 27.5794 16.4051C27.5065 16.7356 27.0695 16.8702 26.8266 16.6621C26.5595 16.4663 26.6081 15.9889 26.8995 15.8542V15.842ZM40.364 16.2459C40.4005 15.8665 39.9148 15.6094 39.6234 15.842C39.3199 16.0256 39.3563 16.5275 39.672 16.6744C39.9634 16.8457 40.3762 16.5887 40.3519 16.2459H40.364ZM34.4877 16.5152C34.9734 16.3439 35.544 16.552 35.8111 16.9926C36.1753 17.5313 35.9811 18.3392 35.4226 18.6452C34.8398 19.0124 33.9899 18.7064 33.7714 18.0331C33.5286 17.4456 33.8807 16.6989 34.4877 16.5152ZM33.1765 17.0906C32.9215 16.5397 32.2052 16.3194 31.671 16.5764C31.1003 16.8335 30.8454 17.5925 31.1367 18.1556C31.4039 18.7309 32.1687 18.9757 32.703 18.6574C33.2493 18.3759 33.48 17.6292 33.1765 17.0783V17.0906ZM28.8421 17.5557C28.8785 17.2007 29.2063 16.9804 29.5341 16.9559C29.8862 17.0049 30.1655 17.2742 30.2019 17.6414C30.1776 17.9964 29.9105 18.3514 29.5341 18.3514C29.1213 18.3881 28.7571 17.9719 28.8421 17.5557ZM38.1786 17.6414C38.2029 17.1518 37.608 16.7845 37.1831 17.0294C36.7338 17.2497 36.6974 17.9719 37.1345 18.229C37.5594 18.535 38.2029 18.1678 38.1786 17.6414ZM30.5175 18.8778C31.0153 18.7431 31.5738 18.9757 31.8167 19.4409C32.0838 19.906 31.9745 20.5548 31.5617 20.8976C31.0275 21.3995 30.0562 21.1914 29.7769 20.5181C29.4491 19.8938 29.8498 19.0492 30.5175 18.89V18.8778ZM37.1709 19.3674C36.9159 18.9267 36.3453 18.7309 35.8718 18.8778C35.1919 19.0614 34.8398 19.9428 35.1919 20.5548C35.4833 21.1546 36.3089 21.3505 36.8431 20.971C37.353 20.6405 37.5109 19.8816 37.1709 19.3674ZM27.3366 19.4531C27.7615 19.294 28.235 19.7714 28.065 20.1998C27.9558 20.5915 27.4215 20.7384 27.1302 20.4446C26.8023 20.1753 26.9238 19.5633 27.3366 19.4531ZM39.5142 19.3797C39.1499 19.4041 38.895 19.7224 38.9071 20.0774C38.9799 20.2488 39.0649 20.4202 39.2349 20.5059C39.587 20.7017 40.0969 20.4202 40.0727 19.9917C40.0969 19.6735 39.8055 19.4286 39.5142 19.3797ZM25.2361 19.6612C25.4911 19.551 25.8068 19.7714 25.7461 20.0652C25.7339 20.3957 25.2604 20.5181 25.0783 20.2488C24.9205 20.0529 25.0176 19.7591 25.224 19.6612H25.2361ZM41.9667 19.8326C41.8938 19.6122 41.6024 19.5266 41.4203 19.649C41.1168 19.8081 41.2382 20.3834 41.6024 20.3467C41.8574 20.3834 42.0881 20.0652 41.9667 19.8326ZM31.9016 21.2281C32.5815 21.0445 33.2979 21.6198 33.31 22.3298C33.3586 23.052 32.6423 23.6763 31.9502 23.5172C31.6835 23.4653 31.4435 23.3203 31.2725 23.1075C31.1015 22.8948 31.0104 22.6281 31.0153 22.3543C31.0153 21.8279 31.4039 21.3383 31.9138 21.2281H31.9016ZM36.0054 22.342C36.0054 21.6198 35.2647 21.0322 34.5848 21.2281C34.1842 21.326 33.8321 21.6688 33.7471 22.0972C33.565 22.7215 34.0385 23.4437 34.682 23.5294C35.3619 23.6641 36.0539 23.052 36.0175 22.3543L36.0054 22.342ZM29.4248 21.6688C29.8983 21.5831 30.3476 22.1217 30.1533 22.5869C30.0076 23.0765 29.3156 23.2112 28.9999 22.8072C28.6357 22.4277 28.9028 21.7177 29.4248 21.6688ZM38.1786 22.3543C38.2151 21.8891 37.693 21.5096 37.268 21.6932C36.7581 21.8646 36.6731 22.6481 37.1345 22.9174C37.5473 23.2234 38.1908 22.8684 38.1786 22.342V22.3543ZM39.4656 23.9334C39.2956 23.6151 39.5991 23.1989 39.9391 23.2601C40.0969 23.2601 40.2183 23.3825 40.3155 23.4927V23.5172L40.3398 23.5539C40.364 23.7375 40.3883 23.9334 40.2426 24.0803C40.0362 24.3496 39.5749 24.2761 39.4535 23.9579L39.4656 23.9334ZM27.6037 23.8355C27.6765 23.456 27.2151 23.1255 26.8995 23.3458C26.5959 23.5049 26.5838 23.9946 26.8752 24.1782C27.1544 24.3741 27.5672 24.1782 27.6037 23.8355ZM33.225 24.0558C33.65 23.8722 34.1842 24.2394 34.1356 24.7046C34.172 25.2187 33.5043 25.5859 33.0915 25.2677C32.6301 24.9984 32.7151 24.2149 33.2129 24.0436L33.225 24.0558ZM31.1003 25.3044C31.1367 24.9004 30.6511 24.5699 30.299 24.7535C30.044 24.8515 29.9469 25.133 29.9348 25.3901C30.0198 25.6227 30.2019 25.8675 30.469 25.8797C30.7968 25.9287 31.1125 25.6471 31.1003 25.3044ZM36.236 24.7658C36.6003 24.5332 37.1223 24.8637 37.0859 25.3044C37.0859 25.7573 36.5031 26.0511 36.1632 25.7573C35.8354 25.5247 35.8718 24.9616 36.236 24.778V24.7658ZM37.5594 26.7489C37.2923 26.8101 37.0981 27.1038 37.268 27.3609C37.438 27.6547 37.9237 27.5445 37.9601 27.2018C38.0087 26.9447 37.778 26.7856 37.5716 26.7366L37.5594 26.7489ZM29.0606 27.1406C29.1213 26.9447 29.2791 26.7366 29.5098 26.7978C29.8498 26.8223 29.9469 27.3364 29.6555 27.4956C29.3884 27.6792 29.0849 27.4344 29.0606 27.1406ZM33.7107 27.0916C33.4679 26.9325 33.0915 27.0794 33.0186 27.3732C32.8972 27.6669 33.1886 28.0342 33.4921 27.9975C33.6621 27.9975 33.7957 27.875 33.8928 27.7526C33.9171 27.6669 33.9292 27.5935 33.9535 27.5078C33.9171 27.3487 33.8685 27.1651 33.6985 27.0916H33.7107Z" fill="white"/>
</svg>
